<svg xmlns="http://www.w3.org/2000/svg" viewBox="0 0 128 128" width="128" height="128">
<title>CarGOUI arcane cargo compass emblem</title>
<desc>Original CarGOUI geometric artwork: blue arcane light, gold navigation ornament, and a cargo cube.</desc>
<ellipse cx="64.0" cy="64.0" rx="44.0" ry="44.0" fill="none" stroke="#15384e" stroke-width="1" stroke-opacity="1.000"/>
<ellipse cx="64.0" cy="64.0" rx="39.0" ry="39.0" fill="none" stroke="#284955" stroke-width="1" stroke-opacity="1.000"/>
<polyline points="31,43 37,32 53,20 61,12" fill="none" stroke="#ba9557" stroke-width="2" stroke-opacity="1.000" stroke-linejoin="round"/>
<polyline points="67,12 75,20 91,32 98,46" fill="none" stroke="#ba9557" stroke-width="2" stroke-opacity="1.000" stroke-linejoin="round"/>
<polyline points="30,82 39,98 54,105 61,116" fill="none" stroke="#ba9557" stroke-width="2" stroke-opacity="1.000" stroke-linejoin="round"/>
<polyline points="67,116 74,105 90,98 98,82" fill="none" stroke="#ba9557" stroke-width="2" stroke-opacity="1.000" stroke-linejoin="round"/>
<polygon points="38,53 19,45 8,46 20,53 28,69 39,76" fill="#183644" stroke="#ba9557" stroke-width="1"/>
<polyline points="33,63 21,56 9,53" fill="none" stroke="#f2d496" stroke-width="1" stroke-opacity="1.000" stroke-linejoin="round"/>
<polyline points="28,77 18,67 9,63" fill="none" stroke="#498cab" stroke-width="1" stroke-opacity="1.000" stroke-linejoin="round"/>
<polygon points="90,53 109,45 120,46 108,53 100,69 89,76" fill="#183644" stroke="#ba9557" stroke-width="1"/>
<polyline points="95,63 107,56 119,53" fill="none" stroke="#f2d496" stroke-width="1" stroke-opacity="1.000" stroke-linejoin="round"/>
<polyline points="100,77 110,67 119,63" fill="none" stroke="#498cab" stroke-width="1" stroke-opacity="1.000" stroke-linejoin="round"/>
<polygon points="64,31 88,45 64,60 40,45" fill="#214b65" stroke="#f2d496" stroke-width="1.4"/>
<polygon points="40,45 64,60 64,89 40,73" fill="#0f2a40" stroke="#ba9557" stroke-width="1.4"/>
<polygon points="64,60 88,45 88,73 64,89" fill="#174159" stroke="#ba9557" stroke-width="1.4"/>
<polyline points="51,38 75,53 75,70" fill="none" stroke="#60bee6" stroke-width="1.6" stroke-opacity="1.000" stroke-linejoin="round"/>
<polyline points="51,52 51,65" fill="none" stroke="#68bdcf" stroke-width="1.3" stroke-opacity="1.000" stroke-linejoin="round"/>
<polyline points="64,64 64,82" fill="none" stroke="#e2bd76" stroke-width="1.4" stroke-opacity="1.000" stroke-linejoin="round"/>
<polygon points="64,4 68,11 64,18 60,11" fill="#70caef" stroke="#f2d496" stroke-width="1"/>
<polygon points="64,108 68,117 64,124 60,117" fill="#2d6a88" stroke="#ba9557" stroke-width="1"/>
<polyline points="61,98 64,102 67,98" fill="none" stroke="#60bee6" stroke-width="1.5" stroke-opacity="1.000" stroke-linejoin="round"/>
</svg>
